<?xml version="1.0" encoding="UTF-8"?>
<svg xmlns="http://www.w3.org/2000/svg" version="1.1" width="100" height="100" viewBox="0 0 100 100"><rect x="0" y="0" width="100" height="100" fill="#ffffff"/><g transform="scale(4)"><g transform="translate(0,0)"><path fill-rule="evenodd" d="M8 0L8 1L9 1L9 2L8 2L8 5L9 5L9 4L11 4L11 5L10 5L10 10L9 10L9 14L8 14L8 13L7 13L7 12L8 12L8 10L5 10L5 9L4 9L4 8L0 8L0 9L1 9L1 11L2 11L2 12L3 12L3 14L1 14L1 15L0 15L0 16L1 16L1 15L3 15L3 16L2 16L2 17L3 17L3 16L5 16L5 17L8 17L8 18L9 18L9 21L8 21L8 25L9 25L9 21L10 21L10 25L12 25L12 24L15 24L15 22L14 22L14 23L11 23L11 20L12 20L12 19L11 19L11 17L10 17L10 18L9 18L9 16L10 16L10 15L9 15L9 14L10 14L10 13L11 13L11 16L12 16L12 17L13 17L13 16L12 16L12 14L13 14L13 15L14 15L14 18L13 18L13 21L15 21L15 20L16 20L16 21L18 21L18 22L16 22L16 24L17 24L17 23L21 23L21 25L25 25L25 24L23 24L23 23L24 23L24 22L25 22L25 21L23 21L23 22L22 22L22 23L21 23L21 21L22 21L22 19L24 19L24 20L25 20L25 18L24 18L24 16L20 16L20 14L21 14L21 15L24 15L24 14L25 14L25 12L24 12L24 11L23 11L23 10L24 10L24 9L25 9L25 8L24 8L24 9L23 9L23 8L20 8L20 9L19 9L19 10L18 10L18 11L15 11L15 12L14 12L14 14L13 14L13 12L12 12L12 13L11 13L11 11L14 11L14 8L15 8L15 5L16 5L16 7L17 7L17 5L16 5L16 4L17 4L17 1L16 1L16 3L15 3L15 0L14 0L14 1L13 1L13 0L12 0L12 1L11 1L11 0L10 0L10 1L9 1L9 0ZM11 2L11 4L12 4L12 3L13 3L13 2ZM14 3L14 4L13 4L13 5L12 5L12 6L11 6L11 8L12 8L12 6L13 6L13 8L14 8L14 6L13 6L13 5L15 5L15 3ZM8 6L8 7L9 7L9 6ZM6 8L6 9L7 9L7 8ZM8 8L8 9L9 9L9 8ZM16 8L16 9L18 9L18 8ZM2 9L2 11L5 11L5 12L4 12L4 13L6 13L6 14L7 14L7 13L6 13L6 12L7 12L7 11L5 11L5 10L4 10L4 9ZM11 9L11 10L12 10L12 9ZM20 9L20 10L21 10L21 9ZM22 9L22 10L23 10L23 9ZM0 12L0 13L1 13L1 12ZM15 12L15 13L16 13L16 14L14 14L14 15L16 15L16 14L17 14L17 13L16 13L16 12ZM19 12L19 13L20 13L20 12ZM22 13L22 14L23 14L23 13ZM3 14L3 15L4 15L4 14ZM5 15L5 16L7 16L7 15ZM8 15L8 16L9 16L9 15ZM17 15L17 16L19 16L19 15ZM15 16L15 18L16 18L16 16ZM17 17L17 20L20 20L20 17ZM21 17L21 18L22 18L22 17ZM18 18L18 19L19 19L19 18ZM18 24L18 25L19 25L19 24ZM0 0L0 7L7 7L7 0ZM1 1L1 6L6 6L6 1ZM2 2L2 5L5 5L5 2ZM18 0L18 7L25 7L25 0ZM19 1L19 6L24 6L24 1ZM20 2L20 5L23 5L23 2ZM0 18L0 25L7 25L7 18ZM1 19L1 24L6 24L6 19ZM2 20L2 23L5 23L5 20Z" fill="#000000"/></g></g></svg>
