<?xml version="1.0" encoding="UTF-8"?>
<svg xmlns="http://www.w3.org/2000/svg" version="1.1" width="100" height="100" viewBox="0 0 100 100"><rect x="0" y="0" width="100" height="100" fill="#ffffff"/><g transform="scale(4)"><g transform="translate(0,0)"><path fill-rule="evenodd" d="M9 0L9 1L8 1L8 2L9 2L9 3L8 3L8 4L10 4L10 7L11 7L11 4L12 4L12 5L13 5L13 6L12 6L12 9L13 9L13 8L14 8L14 9L16 9L16 7L17 7L17 6L16 6L16 5L14 5L14 4L12 4L12 2L15 2L15 3L16 3L16 4L17 4L17 3L16 3L16 1L15 1L15 0L14 0L14 1L11 1L11 2L10 2L10 0ZM10 3L10 4L11 4L11 3ZM8 5L8 7L9 7L9 5ZM13 6L13 7L14 7L14 8L15 8L15 7L16 7L16 6L15 6L15 7L14 7L14 6ZM0 8L0 9L1 9L1 10L2 10L2 12L0 12L0 17L1 17L1 14L2 14L2 12L3 12L3 15L4 15L4 16L2 16L2 17L5 17L5 15L7 15L7 14L5 14L5 15L4 15L4 12L3 12L3 10L2 10L2 9L5 9L5 8ZM6 8L6 9L9 9L9 10L4 10L4 11L5 11L5 13L8 13L8 12L9 12L9 14L8 14L8 16L9 16L9 17L8 17L8 19L9 19L9 18L10 18L10 19L11 19L11 20L8 20L8 25L11 25L11 21L12 21L12 22L13 22L13 23L12 23L12 25L13 25L13 24L14 24L14 25L15 25L15 24L16 24L16 23L17 23L17 22L15 22L15 21L18 21L18 22L19 22L19 23L18 23L18 25L19 25L19 24L20 24L20 22L21 22L21 23L23 23L23 22L24 22L24 24L21 24L21 25L25 25L25 20L24 20L24 21L23 21L23 20L22 20L22 21L23 21L23 22L21 22L21 19L25 19L25 16L24 16L24 17L23 17L23 16L22 16L22 17L21 17L21 16L20 16L20 15L19 15L19 16L17 16L17 15L18 15L18 14L17 14L17 15L16 15L16 14L15 14L15 13L12 13L12 11L13 11L13 10L11 10L11 11L10 11L10 9L11 9L11 8ZM17 8L17 9L18 9L18 8ZM19 8L19 11L20 11L20 13L19 13L19 12L18 12L18 10L17 10L17 12L16 12L16 13L19 13L19 14L20 14L20 13L25 13L25 10L24 10L24 8L23 8L23 10L22 10L22 8L21 8L21 10L22 10L22 11L23 11L23 12L21 12L21 11L20 11L20 8ZM15 10L15 11L14 11L14 12L15 12L15 11L16 11L16 10ZM6 11L6 12L8 12L8 11ZM10 12L10 13L11 13L11 14L9 14L9 16L10 16L10 15L11 15L11 18L13 18L13 19L12 19L12 21L15 21L15 20L16 20L16 19L15 19L15 17L14 17L14 16L15 16L15 15L14 15L14 16L13 16L13 17L12 17L12 15L13 15L13 14L12 14L12 13L11 13L11 12ZM23 14L23 15L25 15L25 14ZM6 16L6 17L7 17L7 16ZM17 17L17 20L20 20L20 17ZM22 17L22 18L23 18L23 17ZM18 18L18 19L19 19L19 18ZM14 19L14 20L15 20L15 19ZM9 22L9 24L10 24L10 22ZM14 23L14 24L15 24L15 23ZM0 0L0 7L7 7L7 0ZM1 1L1 6L6 6L6 1ZM2 2L2 5L5 5L5 2ZM18 0L18 7L25 7L25 0ZM19 1L19 6L24 6L24 1ZM20 2L20 5L23 5L23 2ZM0 18L0 25L7 25L7 18ZM1 19L1 24L6 24L6 19ZM2 20L2 23L5 23L5 20Z" fill="#000000"/></g></g></svg>
