<?xml version="1.0" encoding="UTF-8"?>
<svg xmlns="http://www.w3.org/2000/svg" version="1.1" width="100" height="100" viewBox="0 0 100 100"><rect x="0" y="0" width="100" height="100" fill="#ffffff"/><g transform="scale(4)"><g transform="translate(0,0)"><path fill-rule="evenodd" d="M8 0L8 2L10 2L10 4L8 4L8 9L7 9L7 8L5 8L5 9L7 9L7 10L4 10L4 9L3 9L3 8L0 8L0 9L2 9L2 10L1 10L1 11L3 11L3 12L2 12L2 13L1 13L1 12L0 12L0 13L1 13L1 14L0 14L0 15L5 15L5 14L6 14L6 15L7 15L7 16L6 16L6 17L8 17L8 18L9 18L9 19L8 19L8 20L9 20L9 22L8 22L8 25L11 25L11 24L13 24L13 25L15 25L15 23L16 23L16 21L19 21L19 22L20 22L20 23L19 23L19 24L16 24L16 25L22 25L22 21L21 21L21 20L22 20L22 18L21 18L21 16L22 16L22 15L23 15L23 14L22 14L22 11L21 11L21 10L20 10L20 9L21 9L21 8L13 8L13 6L12 6L12 4L11 4L11 3L13 3L13 5L14 5L14 7L15 7L15 5L14 5L14 3L16 3L16 5L17 5L17 0L16 0L16 2L13 2L13 1L14 1L14 0L11 0L11 1L9 1L9 0ZM11 1L11 2L12 2L12 1ZM9 5L9 8L10 8L10 6L11 6L11 7L12 7L12 6L11 6L11 5ZM16 6L16 7L17 7L17 6ZM11 8L11 10L9 10L9 9L8 9L8 11L4 11L4 10L3 10L3 11L4 11L4 12L3 12L3 13L4 13L4 12L5 12L5 13L6 13L6 14L9 14L9 13L8 13L8 11L10 11L10 14L11 14L11 15L10 15L10 16L11 16L11 18L12 18L12 19L11 19L11 20L10 20L10 19L9 19L9 20L10 20L10 22L9 22L9 24L11 24L11 23L12 23L12 21L11 21L11 20L13 20L13 19L14 19L14 21L13 21L13 22L15 22L15 18L16 18L16 17L15 17L15 18L13 18L13 16L14 16L14 15L13 15L13 16L11 16L11 15L12 15L12 13L11 13L11 12L13 12L13 11L14 11L14 13L13 13L13 14L15 14L15 13L16 13L16 14L17 14L17 16L18 16L18 15L19 15L19 14L18 14L18 12L17 12L17 11L19 11L19 12L20 12L20 14L21 14L21 15L20 15L20 16L21 16L21 15L22 15L22 14L21 14L21 12L20 12L20 10L18 10L18 9L16 9L16 10L17 10L17 11L16 11L16 12L15 12L15 9L14 9L14 10L13 10L13 8ZM23 8L23 10L24 10L24 11L23 11L23 12L24 12L24 16L23 16L23 18L24 18L24 19L23 19L23 23L25 23L25 22L24 22L24 21L25 21L25 18L24 18L24 17L25 17L25 12L24 12L24 11L25 11L25 8ZM11 10L11 11L12 11L12 10ZM6 12L6 13L7 13L7 12ZM15 15L15 16L16 16L16 15ZM0 16L0 17L3 17L3 16ZM8 16L8 17L9 17L9 18L10 18L10 17L9 17L9 16ZM17 17L17 20L20 20L20 17ZM18 18L18 19L19 19L19 18ZM10 22L10 23L11 23L11 22ZM17 22L17 23L18 23L18 22ZM13 23L13 24L14 24L14 23ZM20 23L20 24L21 24L21 23ZM24 24L24 25L25 25L25 24ZM0 0L0 7L7 7L7 0ZM1 1L1 6L6 6L6 1ZM2 2L2 5L5 5L5 2ZM18 0L18 7L25 7L25 0ZM19 1L19 6L24 6L24 1ZM20 2L20 5L23 5L23 2ZM0 18L0 25L7 25L7 18ZM1 19L1 24L6 24L6 19ZM2 20L2 23L5 23L5 20Z" fill="#000000"/></g></g></svg>
