<?xml version="1.0" encoding="UTF-8"?>
<svg xmlns="http://www.w3.org/2000/svg" version="1.1" width="100" height="100" viewBox="0 0 100 100"><rect x="0" y="0" width="100" height="100" fill="#ffffff"/><g transform="scale(4)"><g transform="translate(0,0)"><path fill-rule="evenodd" d="M11 0L11 1L9 1L9 2L11 2L11 1L14 1L14 0ZM16 0L16 2L15 2L15 3L13 3L13 2L12 2L12 4L14 4L14 5L15 5L15 3L16 3L16 2L17 2L17 0ZM8 3L8 5L10 5L10 4L9 4L9 3ZM11 5L11 6L10 6L10 8L9 8L9 10L8 10L8 8L5 8L5 9L3 9L3 10L1 10L1 11L3 11L3 12L2 12L2 14L3 14L3 15L2 15L2 17L8 17L8 20L9 20L9 21L10 21L10 22L9 22L9 23L8 23L8 25L9 25L9 24L10 24L10 25L11 25L11 24L12 24L12 23L13 23L13 22L11 22L11 21L10 21L10 20L11 20L11 19L12 19L12 21L13 21L13 20L14 20L14 22L15 22L15 23L14 23L14 24L13 24L13 25L15 25L15 23L17 23L17 21L18 21L18 22L19 22L19 23L18 23L18 24L16 24L16 25L22 25L22 23L23 23L23 22L24 22L24 25L25 25L25 20L24 20L24 19L25 19L25 16L24 16L24 17L23 17L23 15L25 15L25 14L23 14L23 15L19 15L19 16L15 16L15 17L12 17L12 15L13 15L13 14L10 14L10 11L11 11L11 10L10 10L10 8L11 8L11 9L12 9L12 10L13 10L13 11L12 11L12 12L11 12L11 13L14 13L14 11L15 11L15 12L16 12L16 10L17 10L17 12L18 12L18 13L19 13L19 14L20 14L20 12L21 12L21 14L22 14L22 11L23 11L23 12L24 12L24 13L25 13L25 10L24 10L24 9L22 9L22 8L20 8L20 9L19 9L19 11L20 11L20 12L18 12L18 10L17 10L17 9L16 9L16 8L15 8L15 9L12 9L12 7L13 7L13 5ZM8 6L8 7L9 7L9 6ZM11 6L11 7L12 7L12 6ZM14 6L14 7L15 7L15 6ZM16 6L16 7L17 7L17 6ZM0 8L0 9L2 9L2 8ZM5 9L5 10L4 10L4 12L3 12L3 14L5 14L5 15L3 15L3 16L7 16L7 15L6 15L6 14L8 14L8 13L9 13L9 11L10 11L10 10L9 10L9 11L6 11L6 10L7 10L7 9ZM21 9L21 10L20 10L20 11L22 11L22 9ZM6 12L6 13L8 13L8 12ZM0 13L0 17L1 17L1 13ZM15 13L15 15L16 15L16 13ZM9 14L9 15L10 15L10 14ZM17 14L17 15L18 15L18 14ZM8 16L8 17L9 17L9 20L10 20L10 19L11 19L11 18L12 18L12 19L14 19L14 20L15 20L15 18L16 18L16 17L15 17L15 18L12 18L12 17L11 17L11 16ZM21 16L21 18L22 18L22 20L21 20L21 21L20 21L20 24L21 24L21 21L22 21L22 20L23 20L23 21L24 21L24 20L23 20L23 19L24 19L24 18L23 18L23 17L22 17L22 16ZM17 17L17 20L20 20L20 17ZM18 18L18 19L19 19L19 18ZM10 23L10 24L11 24L11 23ZM0 0L0 7L7 7L7 0ZM1 1L1 6L6 6L6 1ZM2 2L2 5L5 5L5 2ZM18 0L18 7L25 7L25 0ZM19 1L19 6L24 6L24 1ZM20 2L20 5L23 5L23 2ZM0 18L0 25L7 25L7 18ZM1 19L1 24L6 24L6 19ZM2 20L2 23L5 23L5 20Z" fill="#000000"/></g></g></svg>
