<?xml version="1.0" encoding="UTF-8"?>
<svg xmlns="http://www.w3.org/2000/svg" version="1.1" width="100" height="100" viewBox="0 0 100 100"><rect x="0" y="0" width="100" height="100" fill="#ffffff"/><g transform="scale(4)"><g transform="translate(0,0)"><path fill-rule="evenodd" d="M10 0L10 2L11 2L11 0ZM12 0L12 1L13 1L13 0ZM14 0L14 1L15 1L15 2L14 2L14 3L13 3L13 2L12 2L12 4L13 4L13 5L11 5L11 6L10 6L10 4L11 4L11 3L8 3L8 4L9 4L9 5L8 5L8 7L9 7L9 8L6 8L6 9L7 9L7 10L5 10L5 11L7 11L7 12L6 12L6 13L4 13L4 11L3 11L3 10L4 10L4 9L5 9L5 8L0 8L0 9L2 9L2 10L0 10L0 11L3 11L3 12L0 12L0 17L1 17L1 14L2 14L2 13L3 13L3 14L6 14L6 15L2 15L2 17L3 17L3 16L6 16L6 17L8 17L8 19L9 19L9 18L10 18L10 19L11 19L11 17L12 17L12 18L13 18L13 19L12 19L12 21L13 21L13 20L14 20L14 21L18 21L18 22L19 22L19 23L18 23L18 25L19 25L19 24L20 24L20 22L21 22L21 23L23 23L23 22L24 22L24 24L21 24L21 25L25 25L25 20L24 20L24 19L25 19L25 16L24 16L24 17L23 17L23 16L22 16L22 17L21 17L21 16L20 16L20 15L19 15L19 16L17 16L17 15L18 15L18 14L17 14L17 15L16 15L16 14L15 14L15 15L14 15L14 16L15 16L15 17L12 17L12 15L13 15L13 14L11 14L11 15L9 15L9 14L10 14L10 13L11 13L11 12L9 12L9 11L8 11L8 10L9 10L9 9L10 9L10 11L11 11L11 9L12 9L12 10L13 10L13 11L12 11L12 13L13 13L13 12L14 12L14 13L15 13L15 12L14 12L14 11L16 11L16 10L14 10L14 9L12 9L12 7L13 7L13 5L15 5L15 6L14 6L14 8L15 8L15 9L16 9L16 7L17 7L17 6L16 6L16 5L15 5L15 4L17 4L17 3L16 3L16 2L17 2L17 1L15 1L15 0ZM8 1L8 2L9 2L9 1ZM14 3L14 4L15 4L15 3ZM9 6L9 7L10 7L10 6ZM11 6L11 7L12 7L12 6ZM15 6L15 7L16 7L16 6ZM10 8L10 9L11 9L11 8ZM17 8L17 9L18 9L18 8ZM19 8L19 11L20 11L20 13L19 13L19 12L18 12L18 10L17 10L17 12L16 12L16 13L19 13L19 14L20 14L20 13L25 13L25 10L24 10L24 8L23 8L23 10L22 10L22 8L21 8L21 10L22 10L22 11L23 11L23 12L21 12L21 11L20 11L20 8ZM6 13L6 14L7 14L7 15L6 15L6 16L8 16L8 17L9 17L9 16L8 16L8 14L9 14L9 13L8 13L8 14L7 14L7 13ZM23 14L23 15L25 15L25 14ZM10 16L10 17L11 17L11 16ZM17 17L17 20L20 20L20 17ZM22 17L22 18L23 18L23 17ZM18 18L18 19L19 19L19 18ZM14 19L14 20L16 20L16 19ZM21 19L21 22L23 22L23 21L24 21L24 20L23 20L23 19ZM8 20L8 25L12 25L12 23L13 23L13 22L11 22L11 20L10 20L10 22L11 22L11 24L10 24L10 23L9 23L9 20ZM22 20L22 21L23 21L23 20ZM15 22L15 23L14 23L14 24L16 24L16 23L17 23L17 22ZM0 0L0 7L7 7L7 0ZM1 1L1 6L6 6L6 1ZM2 2L2 5L5 5L5 2ZM18 0L18 7L25 7L25 0ZM19 1L19 6L24 6L24 1ZM20 2L20 5L23 5L23 2ZM0 18L0 25L7 25L7 18ZM1 19L1 24L6 24L6 19ZM2 20L2 23L5 23L5 20Z" fill="#000000"/></g></g></svg>
