<?xml version="1.0" encoding="UTF-8"?>
<svg xmlns="http://www.w3.org/2000/svg" version="1.1" width="100" height="100" viewBox="0 0 100 100"><rect x="0" y="0" width="100" height="100" fill="#ffffff"/><g transform="scale(4.762)"><g transform="translate(0,0)"><path fill-rule="evenodd" d="M10 0L10 1L8 1L8 3L9 3L9 2L10 2L10 4L8 4L8 8L6 8L6 9L5 9L5 10L4 10L4 8L3 8L3 9L2 9L2 8L0 8L0 10L1 10L1 11L2 11L2 12L1 12L1 13L3 13L3 11L2 11L2 10L4 10L4 11L5 11L5 12L4 12L4 13L8 13L8 15L9 15L9 16L10 16L10 17L11 17L11 16L12 16L12 19L11 19L11 20L14 20L14 21L15 21L15 20L16 20L16 21L17 21L17 20L16 20L16 19L19 19L19 18L18 18L18 17L16 17L16 16L17 16L17 14L18 14L18 11L19 11L19 12L20 12L20 13L19 13L19 15L20 15L20 13L21 13L21 12L20 12L20 11L21 11L21 9L20 9L20 8L18 8L18 9L19 9L19 10L17 10L17 8L14 8L14 9L16 9L16 10L12 10L12 9L13 9L13 8L12 8L12 7L13 7L13 6L12 6L12 7L11 7L11 6L10 6L10 7L9 7L9 5L10 5L10 4L11 4L11 5L12 5L12 4L13 4L13 3L12 3L12 1L11 1L11 0ZM8 8L8 9L10 9L10 8ZM11 8L11 9L12 9L12 8ZM1 9L1 10L2 10L2 9ZM6 9L6 10L7 10L7 9ZM9 10L9 11L8 11L8 13L9 13L9 12L10 12L10 13L12 13L12 14L9 14L9 15L10 15L10 16L11 16L11 15L12 15L12 16L14 16L14 17L13 17L13 18L14 18L14 20L15 20L15 18L16 18L16 17L15 17L15 14L14 14L14 13L16 13L16 14L17 14L17 13L16 13L16 12L17 12L17 10L16 10L16 11L15 11L15 12L14 12L14 11L12 11L12 12L10 12L10 11L11 11L11 10ZM19 10L19 11L20 11L20 10ZM6 11L6 12L7 12L7 11ZM12 14L12 15L14 15L14 14ZM19 16L19 17L20 17L20 19L21 19L21 16ZM8 17L8 18L9 18L9 19L8 19L8 21L10 21L10 20L9 20L9 19L10 19L10 18L9 18L9 17ZM19 20L19 21L20 21L20 20ZM0 0L0 7L7 7L7 0ZM1 1L1 6L6 6L6 1ZM2 2L2 5L5 5L5 2ZM14 0L14 7L21 7L21 0ZM15 1L15 6L20 6L20 1ZM16 2L16 5L19 5L19 2ZM0 14L0 21L7 21L7 14ZM1 15L1 20L6 20L6 15ZM2 16L2 19L5 19L5 16Z" fill="#000000"/></g></g></svg>
