<?xml version="1.0" encoding="UTF-8"?>
<svg xmlns="http://www.w3.org/2000/svg" version="1.1" width="100" height="100" viewBox="0 0 100 100"><rect x="0" y="0" width="100" height="100" fill="#ffffff"/><g transform="scale(4)"><g transform="translate(0,0)"><path fill-rule="evenodd" d="M10 0L10 1L8 1L8 3L9 3L9 4L8 4L8 8L6 8L6 9L4 9L4 8L3 8L3 9L2 9L2 8L0 8L0 9L1 9L1 10L0 10L0 11L1 11L1 13L2 13L2 14L4 14L4 16L5 16L5 17L7 17L7 16L9 16L9 17L8 17L8 19L9 19L9 21L8 21L8 22L10 22L10 23L8 23L8 25L10 25L10 24L11 24L11 22L12 22L12 21L11 21L11 20L10 20L10 19L12 19L12 20L13 20L13 18L14 18L14 20L15 20L15 18L16 18L16 21L17 21L17 22L16 22L16 23L14 23L14 24L15 24L15 25L17 25L17 24L16 24L16 23L17 23L17 22L18 22L18 21L20 21L20 25L21 25L21 21L22 21L22 20L23 20L23 21L25 21L25 18L24 18L24 17L25 17L25 12L24 12L24 11L25 11L25 9L24 9L24 8L22 8L22 9L21 9L21 8L18 8L18 9L17 9L17 6L16 6L16 4L17 4L17 3L16 3L16 2L17 2L17 0L15 0L15 1L13 1L13 2L14 2L14 3L12 3L12 7L11 7L11 4L10 4L10 3L9 3L9 2L11 2L11 0ZM14 3L14 4L13 4L13 7L12 7L12 8L13 8L13 9L14 9L14 10L15 10L15 11L14 11L14 12L12 12L12 16L10 16L10 17L9 17L9 18L10 18L10 17L11 17L11 18L12 18L12 16L14 16L14 17L16 17L16 16L15 16L15 15L16 15L16 13L17 13L17 9L16 9L16 8L15 8L15 7L16 7L16 6L15 6L15 5L14 5L14 4L15 4L15 3ZM9 5L9 8L8 8L8 9L6 9L6 10L7 10L7 11L6 11L6 12L9 12L9 13L8 13L8 14L7 14L7 13L5 13L5 12L4 12L4 11L5 11L5 10L3 10L3 12L4 12L4 14L5 14L5 15L6 15L6 16L7 16L7 15L8 15L8 14L9 14L9 15L10 15L10 14L11 14L11 13L10 13L10 12L9 12L9 11L11 11L11 8L10 8L10 5ZM14 6L14 7L13 7L13 8L14 8L14 9L15 9L15 8L14 8L14 7L15 7L15 6ZM9 9L9 10L8 10L8 11L9 11L9 10L10 10L10 9ZM19 9L19 10L18 10L18 11L20 11L20 12L19 12L19 13L20 13L20 14L17 14L17 15L19 15L19 16L23 16L23 17L22 17L22 18L21 18L21 20L22 20L22 19L23 19L23 17L24 17L24 16L23 16L23 15L24 15L24 14L23 14L23 15L21 15L21 14L22 14L22 13L23 13L23 11L20 11L20 10L21 10L21 9ZM22 9L22 10L24 10L24 9ZM14 12L14 13L13 13L13 15L15 15L15 13L16 13L16 12ZM0 14L0 15L1 15L1 16L0 16L0 17L3 17L3 15L1 15L1 14ZM6 14L6 15L7 15L7 14ZM17 17L17 20L20 20L20 17ZM18 18L18 19L19 19L19 18ZM10 21L10 22L11 22L11 21ZM14 21L14 22L15 22L15 21ZM22 22L22 23L23 23L23 22ZM24 22L24 23L25 23L25 22ZM12 24L12 25L13 25L13 24ZM18 24L18 25L19 25L19 24ZM23 24L23 25L25 25L25 24ZM0 0L0 7L7 7L7 0ZM1 1L1 6L6 6L6 1ZM2 2L2 5L5 5L5 2ZM18 0L18 7L25 7L25 0ZM19 1L19 6L24 6L24 1ZM20 2L20 5L23 5L23 2ZM0 18L0 25L7 25L7 18ZM1 19L1 24L6 24L6 19ZM2 20L2 23L5 23L5 20Z" fill="#000000"/></g></g></svg>
