<?xml version="1.0" encoding="UTF-8"?>
<svg xmlns="http://www.w3.org/2000/svg" version="1.1" width="100" height="100" viewBox="0 0 100 100"><rect x="0" y="0" width="100" height="100" fill="#ffffff"/><g transform="scale(4)"><g transform="translate(0,0)"><path fill-rule="evenodd" d="M9 0L9 1L10 1L10 2L8 2L8 3L9 3L9 4L10 4L10 5L9 5L9 6L8 6L8 8L4 8L4 9L3 9L3 8L0 8L0 9L1 9L1 10L0 10L0 11L1 11L1 14L0 14L0 15L1 15L1 16L0 16L0 17L1 17L1 16L4 16L4 15L7 15L7 14L9 14L9 15L8 15L8 16L9 16L9 17L8 17L8 21L9 21L9 22L8 22L8 25L10 25L10 24L9 24L9 23L10 23L10 22L11 22L11 23L12 23L12 24L11 24L11 25L12 25L12 24L14 24L14 25L17 25L17 24L18 24L18 25L19 25L19 24L18 24L18 23L17 23L17 24L16 24L16 23L15 23L15 22L14 22L14 21L13 21L13 20L12 20L12 19L11 19L11 18L12 18L12 16L14 16L14 18L13 18L13 19L14 19L14 18L16 18L16 21L17 21L17 22L18 22L18 21L20 21L20 22L19 22L19 23L21 23L21 21L22 21L22 20L21 20L21 18L22 18L22 16L19 16L19 15L18 15L18 14L19 14L19 12L21 12L21 11L22 11L22 9L23 9L23 8L22 8L22 9L21 9L21 10L19 10L19 8L16 8L16 7L17 7L17 6L16 6L16 5L17 5L17 0L15 0L15 2L16 2L16 3L15 3L15 6L14 6L14 5L13 5L13 6L12 6L12 8L11 8L11 6L10 6L10 5L11 5L11 4L12 4L12 3L13 3L13 2L14 2L14 1L13 1L13 0L12 0L12 1L10 1L10 0ZM11 2L11 3L12 3L12 2ZM9 6L9 7L10 7L10 6ZM13 6L13 7L14 7L14 6ZM15 6L15 7L16 7L16 6ZM9 8L9 9L4 9L4 10L2 10L2 11L4 11L4 13L3 13L3 12L2 12L2 14L1 14L1 15L2 15L2 14L3 14L3 15L4 15L4 14L7 14L7 13L8 13L8 11L6 11L6 12L7 12L7 13L5 13L5 11L4 11L4 10L10 10L10 11L9 11L9 14L10 14L10 15L11 15L11 16L10 16L10 17L9 17L9 18L10 18L10 17L11 17L11 16L12 16L12 15L11 15L11 13L12 13L12 12L13 12L13 13L14 13L14 14L13 14L13 15L14 15L14 14L15 14L15 15L16 15L16 14L17 14L17 12L18 12L18 11L19 11L19 10L18 10L18 11L16 11L16 10L17 10L17 9L16 9L16 8L15 8L15 9L14 9L14 8L12 8L12 10L10 10L10 8ZM24 9L24 10L23 10L23 11L25 11L25 9ZM13 10L13 11L14 11L14 10ZM11 11L11 12L12 12L12 11ZM15 12L15 13L16 13L16 12ZM23 12L23 14L20 14L20 15L23 15L23 16L24 16L24 17L25 17L25 12ZM5 16L5 17L7 17L7 16ZM15 16L15 17L16 17L16 16ZM17 17L17 20L20 20L20 17ZM18 18L18 19L19 19L19 18ZM23 18L23 19L24 19L24 21L25 21L25 18ZM10 19L10 21L12 21L12 20L11 20L11 19ZM13 22L13 23L14 23L14 22ZM24 22L24 23L23 23L23 25L25 25L25 24L24 24L24 23L25 23L25 22ZM20 24L20 25L21 25L21 24ZM0 0L0 7L7 7L7 0ZM1 1L1 6L6 6L6 1ZM2 2L2 5L5 5L5 2ZM18 0L18 7L25 7L25 0ZM19 1L19 6L24 6L24 1ZM20 2L20 5L23 5L23 2ZM0 18L0 25L7 25L7 18ZM1 19L1 24L6 24L6 19ZM2 20L2 23L5 23L5 20Z" fill="#000000"/></g></g></svg>
