<?xml version="1.0" encoding="UTF-8"?>
<svg xmlns="http://www.w3.org/2000/svg" version="1.1" width="100" height="100" viewBox="0 0 100 100"><rect x="0" y="0" width="100" height="100" fill="#ffffff"/><g transform="scale(4.762)"><g transform="translate(0,0)"><path fill-rule="evenodd" d="M8 0L8 1L10 1L10 0ZM11 1L11 2L10 2L10 4L11 4L11 2L12 2L12 3L13 3L13 2L12 2L12 1ZM8 2L8 5L9 5L9 6L8 6L8 7L9 7L9 6L10 6L10 7L11 7L11 8L10 8L10 9L9 9L9 8L8 8L8 9L9 9L9 10L8 10L8 11L11 11L11 12L12 12L12 11L11 11L11 10L10 10L10 9L12 9L12 10L14 10L14 11L15 11L15 12L14 12L14 13L16 13L16 14L15 14L15 17L14 17L14 18L13 18L13 17L12 17L12 16L14 16L14 15L12 15L12 13L9 13L9 12L8 12L8 14L10 14L10 15L9 15L9 17L8 17L8 21L9 21L9 20L10 20L10 19L11 19L11 21L15 21L15 18L16 18L16 16L17 16L17 19L16 19L16 21L19 21L19 20L17 20L17 19L19 19L19 18L18 18L18 17L19 17L19 16L20 16L20 17L21 17L21 16L20 16L20 15L19 15L19 14L21 14L21 13L19 13L19 14L18 14L18 11L16 11L16 10L19 10L19 12L21 12L21 8L20 8L20 10L19 10L19 8L16 8L16 10L14 10L14 8L13 8L13 9L12 9L12 7L13 7L13 6L12 6L12 7L11 7L11 5L9 5L9 2ZM12 4L12 5L13 5L13 4ZM0 8L0 9L1 9L1 10L0 10L0 12L1 12L1 13L3 13L3 12L5 12L5 11L7 11L7 10L6 10L6 9L7 9L7 8L6 8L6 9L4 9L4 8ZM1 10L1 11L5 11L5 10ZM6 12L6 13L7 13L7 12ZM16 12L16 13L17 13L17 12ZM11 15L11 16L10 16L10 17L9 17L9 19L10 19L10 17L11 17L11 19L12 19L12 17L11 17L11 16L12 16L12 15ZM20 19L20 20L21 20L21 19ZM0 0L0 7L7 7L7 0ZM1 1L1 6L6 6L6 1ZM2 2L2 5L5 5L5 2ZM14 0L14 7L21 7L21 0ZM15 1L15 6L20 6L20 1ZM16 2L16 5L19 5L19 2ZM0 14L0 21L7 21L7 14ZM1 15L1 20L6 20L6 15ZM2 16L2 19L5 19L5 16Z" fill="#000000"/></g></g></svg>
