<?xml version="1.0" encoding="UTF-8"?>
<svg xmlns="http://www.w3.org/2000/svg" version="1.1" width="100" height="100" viewBox="0 0 100 100"><rect x="0" y="0" width="100" height="100" fill="#ffffff"/><g transform="scale(4.762)"><g transform="translate(0,0)"><path fill-rule="evenodd" d="M9 0L9 1L8 1L8 2L9 2L9 3L8 3L8 4L9 4L9 5L8 5L8 7L9 7L9 8L6 8L6 9L5 9L5 8L0 8L0 9L1 9L1 10L0 10L0 11L1 11L1 12L0 12L0 13L1 13L1 12L2 12L2 13L5 13L5 12L6 12L6 13L8 13L8 15L9 15L9 16L8 16L8 21L9 21L9 20L10 20L10 19L11 19L11 17L10 17L10 19L9 19L9 16L10 16L10 15L12 15L12 17L13 17L13 18L12 18L12 19L13 19L13 20L14 20L14 21L16 21L16 20L17 20L17 21L18 21L18 20L19 20L19 21L20 21L20 20L19 20L19 18L20 18L20 17L16 17L16 18L17 18L17 19L15 19L15 16L20 16L20 13L18 13L18 12L19 12L19 11L20 11L20 12L21 12L21 11L20 11L20 10L21 10L21 9L20 9L20 8L19 8L19 9L18 9L18 8L17 8L17 9L16 9L16 8L15 8L15 9L16 9L16 10L17 10L17 13L16 13L16 12L14 12L14 11L13 11L13 10L14 10L14 8L13 8L13 5L12 5L12 4L11 4L11 3L10 3L10 0ZM12 1L12 2L13 2L13 1ZM9 3L9 4L10 4L10 3ZM10 5L10 6L9 6L9 7L10 7L10 9L9 9L9 10L8 10L8 9L6 9L6 10L5 10L5 9L4 9L4 10L3 10L3 9L2 9L2 10L1 10L1 11L2 11L2 10L3 10L3 12L5 12L5 11L6 11L6 12L8 12L8 11L9 11L9 10L10 10L10 9L11 9L11 10L12 10L12 9L11 9L11 8L12 8L12 5ZM10 6L10 7L11 7L11 6ZM19 9L19 10L20 10L20 9ZM4 10L4 11L5 11L5 10ZM6 10L6 11L8 11L8 10ZM9 12L9 15L10 15L10 12ZM11 12L11 14L12 14L12 13L13 13L13 14L14 14L14 16L13 16L13 17L14 17L14 16L15 16L15 15L17 15L17 14L18 14L18 15L19 15L19 14L18 14L18 13L17 13L17 14L14 14L14 12ZM14 19L14 20L15 20L15 19ZM11 20L11 21L12 21L12 20ZM0 0L0 7L7 7L7 0ZM1 1L1 6L6 6L6 1ZM2 2L2 5L5 5L5 2ZM14 0L14 7L21 7L21 0ZM15 1L15 6L20 6L20 1ZM16 2L16 5L19 5L19 2ZM0 14L0 21L7 21L7 14ZM1 15L1 20L6 20L6 15ZM2 16L2 19L5 19L5 16Z" fill="#000000"/></g></g></svg>
