<?xml version="1.0" encoding="UTF-8"?>
<svg xmlns="http://www.w3.org/2000/svg" version="1.1" width="100" height="100" viewBox="0 0 100 100"><rect x="0" y="0" width="100" height="100" fill="#ffffff"/><g transform="scale(4)"><g transform="translate(0,0)"><path fill-rule="evenodd" d="M8 0L8 4L10 4L10 3L11 3L11 4L12 4L12 2L11 2L11 0ZM12 0L12 1L13 1L13 2L14 2L14 3L13 3L13 5L11 5L11 6L10 6L10 7L9 7L9 5L8 5L8 7L9 7L9 8L10 8L10 7L11 7L11 6L12 6L12 8L11 8L11 9L9 9L9 10L11 10L11 11L10 11L10 13L11 13L11 12L12 12L12 13L13 13L13 14L15 14L15 15L14 15L14 16L13 16L13 15L12 15L12 16L11 16L11 15L10 15L10 14L8 14L8 13L9 13L9 12L6 12L6 11L8 11L8 9L7 9L7 8L4 8L4 9L3 9L3 11L2 11L2 12L3 12L3 15L2 15L2 16L0 16L0 17L2 17L2 16L3 16L3 15L4 15L4 14L5 14L5 17L7 17L7 16L6 16L6 15L7 15L7 14L8 14L8 15L10 15L10 16L11 16L11 17L12 17L12 18L10 18L10 17L9 17L9 16L8 16L8 18L9 18L9 19L8 19L8 21L9 21L9 23L8 23L8 25L9 25L9 24L10 24L10 25L12 25L12 24L13 24L13 25L16 25L16 24L18 24L18 25L21 25L21 24L20 24L20 22L19 22L19 21L21 21L21 23L22 23L22 25L25 25L25 24L24 24L24 22L25 22L25 19L24 19L24 21L23 21L23 19L22 19L22 18L21 18L21 17L23 17L23 18L25 18L25 15L23 15L23 14L22 14L22 13L25 13L25 12L23 12L23 11L22 11L22 13L20 13L20 12L21 12L21 11L20 11L20 10L21 10L21 9L23 9L23 10L24 10L24 9L25 9L25 8L21 8L21 9L20 9L20 8L19 8L19 9L20 9L20 10L18 10L18 12L17 12L17 10L16 10L16 9L15 9L15 8L17 8L17 6L16 6L16 7L15 7L15 5L16 5L16 3L17 3L17 1L16 1L16 0L15 0L15 1L14 1L14 0ZM15 1L15 2L16 2L16 1ZM9 2L9 3L10 3L10 2ZM14 3L14 5L13 5L13 8L12 8L12 9L11 9L11 10L12 10L12 9L13 9L13 10L14 10L14 9L13 9L13 8L14 8L14 5L15 5L15 3ZM0 8L0 9L1 9L1 10L0 10L0 14L1 14L1 10L2 10L2 8ZM6 9L6 10L5 10L5 11L4 11L4 13L5 13L5 14L7 14L7 13L6 13L6 12L5 12L5 11L6 11L6 10L7 10L7 9ZM12 11L12 12L13 12L13 11ZM14 11L14 13L15 13L15 12L16 12L16 11ZM19 11L19 12L20 12L20 11ZM16 13L16 14L17 14L17 15L16 15L16 16L15 16L15 17L13 17L13 16L12 16L12 17L13 17L13 18L16 18L16 16L17 16L17 15L18 15L18 14L19 14L19 15L20 15L20 16L22 16L22 14L20 14L20 13ZM23 16L23 17L24 17L24 16ZM17 17L17 20L20 20L20 17ZM18 18L18 19L19 19L19 18ZM10 19L10 20L9 20L9 21L10 21L10 20L11 20L11 23L10 23L10 24L12 24L12 23L13 23L13 24L14 24L14 23L15 23L15 22L13 22L13 21L12 21L12 20L13 20L13 19L12 19L12 20L11 20L11 19ZM14 19L14 21L16 21L16 23L17 23L17 22L18 22L18 21L16 21L16 19ZM21 19L21 20L22 20L22 19ZM22 21L22 23L23 23L23 21ZM18 23L18 24L19 24L19 23ZM0 0L0 7L7 7L7 0ZM1 1L1 6L6 6L6 1ZM2 2L2 5L5 5L5 2ZM18 0L18 7L25 7L25 0ZM19 1L19 6L24 6L24 1ZM20 2L20 5L23 5L23 2ZM0 18L0 25L7 25L7 18ZM1 19L1 24L6 24L6 19ZM2 20L2 23L5 23L5 20Z" fill="#000000"/></g></g></svg>
