<?xml version="1.0" encoding="UTF-8"?>
<svg xmlns="http://www.w3.org/2000/svg" version="1.1" width="100" height="100" viewBox="0 0 100 100"><rect x="0" y="0" width="100" height="100" fill="#ffffff"/><g transform="scale(4.762)"><g transform="translate(0,0)"><path fill-rule="evenodd" d="M10 0L10 1L9 1L9 2L8 2L8 3L9 3L9 2L10 2L10 4L9 4L9 6L8 6L8 8L4 8L4 9L3 9L3 8L0 8L0 10L1 10L1 9L2 9L2 13L3 13L3 12L4 12L4 13L8 13L8 17L9 17L9 18L8 18L8 21L9 21L9 20L11 20L11 21L12 21L12 20L13 20L13 19L14 19L14 18L15 18L15 20L16 20L16 21L18 21L18 20L17 20L17 19L19 19L19 21L21 21L21 20L20 20L20 19L21 19L21 18L20 18L20 19L19 19L19 18L17 18L17 15L18 15L18 12L16 12L16 13L13 13L13 14L12 14L12 13L11 13L11 11L13 11L13 10L12 10L12 9L15 9L15 8L12 8L12 7L13 7L13 6L12 6L12 4L13 4L13 3L11 3L11 2L12 2L12 1L11 1L11 0ZM10 1L10 2L11 2L11 1ZM10 5L10 6L9 6L9 7L10 7L10 8L9 8L9 9L8 9L8 10L7 10L7 9L4 9L4 10L3 10L3 11L4 11L4 12L8 12L8 10L9 10L9 14L10 14L10 11L11 11L11 9L10 9L10 8L11 8L11 7L12 7L12 6L11 6L11 5ZM10 6L10 7L11 7L11 6ZM18 8L18 9L19 9L19 10L17 10L17 9L16 9L16 10L14 10L14 11L19 11L19 12L20 12L20 13L21 13L21 9L19 9L19 8ZM9 9L9 10L10 10L10 9ZM4 10L4 11L5 11L5 10ZM6 10L6 11L7 11L7 10ZM0 12L0 13L1 13L1 12ZM19 14L19 15L21 15L21 14ZM10 15L10 16L11 16L11 17L10 17L10 18L9 18L9 19L12 19L12 18L11 18L11 17L12 17L12 16L13 16L13 18L14 18L14 17L15 17L15 18L16 18L16 17L15 17L15 15L12 15L12 16L11 16L11 15ZM20 16L20 17L21 17L21 16ZM0 0L0 7L7 7L7 0ZM1 1L1 6L6 6L6 1ZM2 2L2 5L5 5L5 2ZM14 0L14 7L21 7L21 0ZM15 1L15 6L20 6L20 1ZM16 2L16 5L19 5L19 2ZM0 14L0 21L7 21L7 14ZM1 15L1 20L6 20L6 15ZM2 16L2 19L5 19L5 16Z" fill="#000000"/></g></g></svg>
